PathFileType	4	(X/Y/Z)	60_1_tpose_p0_0-170_filt_butterworth.trc
DataRate	CameraRate	NumFrames	NumMarkers	Units	OrigDataRate	OrigDataStartFrame	OrigNumFrames
49.0	49.0	7	27	m	49.0	85	170
Frame#	Time	RHip			RKnee			RAnkle			RBigToe			RSmallToe			RHeel			LHip			LKnee			LAnkle			LBigToe			LSmallToe			LHeel			Neck			Head			Nose			RShoulder			RElbow			RWrist			RThumb			RIndex			RPinky			LShoulder			LElbow			LWrist			LThumb			LIndex			LPinky			
		X1	Y1	Z1	X2	Y2	Z2	X3	Y3	Z3	X4	Y4	Z4	X5	Y5	Z5	X6	Y6	Z6	X7	Y7	Z7	X8	Y8	Z8	X9	Y9	Z9	X10	Y10	Z10	X11	Y11	Z11	X12	Y12	Z12	X13	Y13	Z13	X14	Y14	Z14	X15	Y15	Z15	X16	Y16	Z16	X17	Y17	Z17	X18	Y18	Z18	X19	Y19	Z19	X20	Y20	Z20	X21	Y21	Z21	X22	Y22	Z22	X23	Y23	Z23	X24	Y24	Z24	X25	Y25	Z25	X26	Y26	Z26	X27	Y27	Z27	
85	1.7346938775510203	0.34701092674906114	0.7295265618677117	0.65688029802261	0.34231427569291756	0.2532750486902049	0.7347643199421525	0.3224453921956998	-0.14347008689336221	0.7946211797628489	0.28555631357287814	-0.18147558894900262	0.6218918051340938	0.3518661404728002	-0.1655329430154874	0.613932957220726	0.29299562821563135	-0.2252838997512429	0.894965570819403	0.1402069937519626	0.7335087591361329	0.651807902249238	0.12399864771935921	0.2650077460719803	0.740651448067577	0.12133870331016364	-0.1259729274573123	0.7835519626207352	0.12757628525701528	-0.14723903680264105	0.5847469422690271	0.07056218215812471	-0.16774949861359328	0.6563097356932979	0.1450645168838411	-0.18785762635264946	0.8430016287410704	0.25770776811874707	1.28673870480453	0.5997237742552197	0.2612859145699992	1.516552321883318	0.5591246846635055	0.2574089463250267	1.3843449709194153	0.5173805646820318	0.42081494954607157	1.2458228653262178	0.6389862009057418	0.6766035243270279	1.2358766860282633	0.5560362392569775	0.9101740992359725	1.2575421896909338	0.5296402020715418	1.056735809128714	1.2257222079248005	0.4630743679465697	1.072841918139503	1.2263517599667848	0.466252047513284	1.0489583747906235	1.2104560787838983	0.5324378527497556	0.09365783285839221	1.2610510697972652	0.6544322793877493	-0.13020654136097456	1.2650901369346181	0.6549484846619378	-0.3810344923749559	1.2801263064649326	0.5903900958257831	-0.4853961503210829	1.2654546151215071	0.5445634266782631	-0.5293547350981547	1.2849609558052508	0.5848342264364886	-0.5298442034742339	1.295533977786025	0.6446993800352732	
86	1.7551020408163265	0.3469921294495075	0.7294627783229776	0.6571697530494647	0.34231549682453	0.253300954898436	0.7347117710914678	0.3224517875883596	-0.14359818857240764	0.7951624516602169	0.28640686130704834	-0.18156034862163228	0.6243445173198368	0.35113713529896073	-0.16709978960229915	0.6171466865568538	0.2930319502296834	-0.2252534861887588	0.89500704855623	0.14067614486404456	0.7341796653343554	0.6513527353882621	0.1236365774128435	0.26574484272997545	0.7404085182699237	0.1206808408434401	-0.12582852861935728	0.783009800784379	0.1276263874423435	-0.14813114532717053	0.5845715307733371	0.07055849000866563	-0.1678735825717595	0.656435465197623	0.14492274893453658	-0.18745136692921238	0.8418906524488541	0.2576911221169233	1.2870399060962692	0.5996272695335556	0.2612943833703441	1.516131175749702	0.5592323728071789	0.25678889957015905	1.3843252483961512	0.5170911464762046	0.42093933839011366	1.246528421967228	0.6394174699534566	0.6766231781736125	1.2353218041715919	0.5560779494148825	0.9102365870048028	1.2568818847378762	0.5324760866419291	1.0563387738349928	1.2243217153175676	0.4683293240253235	1.072505716742785	1.2252001494341735	0.4679978535465625	1.0496448167196084	1.2090007858505654	0.535960666736127	0.09366629127963558	1.2610438329505562	0.6544245274433966	-0.13029777648154994	1.2643589788832559	0.6526373935497871	-0.3818874766866578	1.280394036015141	0.5892385348605469	-0.4865526059963735	1.2657341101787805	0.5407629743273513	-0.5294269931863315	1.2854694131369546	0.5846799995075905	-0.5298251680323669	1.296261752246908	0.6445205310830973	
87	1.7755102040816326	0.3469489365285098	0.7293973344928013	0.657436865536319	0.3423165064878422	0.2533253615298598	0.7346669551517471	0.32247108626389687	-0.14364064910206356	0.7953968596009636	0.2872921760725511	-0.18189358338885714	0.6268306389037785	0.35034285052989184	-0.16834402213291996	0.6197344466101048	0.2930265819831656	-0.22529344285699393	0.8950974265349589	0.14104036281653662	0.7349313118044689	0.6507744566742698	0.1233235906557605	0.2663965118079432	0.7401729139294085	0.12014810662711554	-0.1258525721873407	0.782594756939507	0.1276340547942331	-0.14907065794831667	0.5844046365838704	0.07056376426511417	-0.16794081268070404	0.6565137683746164	0.1447110952695506	-0.18733970484311424	0.8408202507630697	0.2576605580774206	1.287566045072033	0.5994934262253235	0.2612882130948395	1.5157957905311445	0.5592642532207519	0.2560025981040932	1.384305710315868	0.5167458280014172	0.4210706587631927	1.247035476810037	0.6399063229468334	0.6766214435529003	1.2349983726951104	0.5561215887638613	0.9104532373347545	1.2559669085316971	0.5344378155462436	1.055574755255313	1.2231309152527698	0.47132669409292627	1.0725098415435732	1.2241695812651678	0.46899657140567647	1.0509419183500746	1.2077139882585577	0.5387670503359802	0.09367381385729687	1.2610335466096334	0.6544167217089287	-0.13065922436477403	1.2640607158915202	0.6499931422909476	-0.3826816999973958	1.280703203451005	0.5866970788283614	-0.4877173053781979	1.2659192435745699	0.5374025122462524	-0.5294836839453183	1.2860994700231176	0.5844893405588234	-0.5305402221668563	1.296971926751518	0.6442425662887732	
88	1.7959183673469388	0.3468910823256437	0.7293629415989519	0.6575124863935582	0.3423194341003176	0.2533502900644965	0.7346270395931871	0.32252447501512327	-0.14358783558372257	0.7952458570539883	0.28809752711104514	-0.18237705702812487	0.6289963651223283	0.349538068135979	-0.1690650406984589	0.6212353708959572	0.2929609554604643	-0.22544738460411456	0.8954040267864745	0.1412752087870205	0.7357523055820647	0.6502047021835483	0.12306795446585048	0.26687609395907425	0.7399582456563594	0.11978067457253451	-0.12599601530765375	0.7823119225994195	0.12759945130900668	-0.14992264533385583	0.5842834157044041	0.07058309479816596	-0.16792728999620002	0.6565399352269088	0.14444576908432738	-0.18746069822287154	0.8398941893987045	0.25762030463148006	1.2882204299836375	0.5993438620593928	0.2612673053621373	1.5156187941433479	0.559229404402942	0.2551595941464869	1.3842909351476567	0.516392644100053	0.42102109602624926	1.2471668513073328	0.639852065443832	0.6765997859553642	1.2349355960926145	0.5561568807996058	0.9105596534194014	1.2548763377298857	0.5348811951621597	1.054488819339315	1.222326219490892	0.471456901986016	1.0726969148683885	1.2232432068567731	0.4691009464609501	1.0526855202602499	1.2066467502077893	0.5407533094163819	0.09367855814637083	1.2610241252690841	0.6544164044876006	-0.13129013691051292	1.2641734102426387	0.6468824215264404	-0.3832502655026685	1.2809116387692405	0.5831983480130265	-0.48878323951829084	1.2660791369813937	0.5344025570956034	-0.5295231241606436	1.286867956492358	0.5842678524499438	-0.5318236362916946	1.2973660929459223	0.6441518186130697	
89	1.816326530612245	0.3467740618742598	0.7293677966179185	0.657355391116216	0.3423257495156862	0.25337890838048927	0.7345867968109486	0.3226404753434626	-0.1434647116745239	0.7947704400969763	0.2886716445158393	-0.1829446224663345	0.6304329565557343	0.34888618145681893	-0.1692809041796936	0.6216296044331555	0.29283716885235644	-0.22566326909933995	0.8959419364912957	0.1414078481701671	0.7366361383642154	0.6498523890686354	0.12292807730649098	0.26716426432114637	0.739741941043234	0.11956973613229625	-0.12622353806579945	0.7821323428608384	0.12756568018166461	-0.15054638831392939	0.5842541278440553	0.07061304124388236	-0.16785553773907547	0.6565342219938716	0.14418711590287606	-0.18775437243663132	0.8391637039927545	0.2575720208887634	1.2889074367519575	0.5991785839650227	0.2612375533507706	1.515577179483623	0.5591730399201958	0.25435650630295525	1.3842815202123444	0.5160691178972683	0.4206602211518322	1.246972156486408	0.6388161705235977	0.6765700289215402	1.2350259230186365	0.5561864038044146	0.9102786451105211	1.2536389528766458	0.533801778757614	1.0532587905395185	1.221936158781302	0.4690671438705578	1.0726132781411286	1.2221076039181966	0.46853921125011433	1.0544904301659903	1.205689346643056	0.5421608805152739	0.09367856000851695	1.2610136510835654	0.6544232556008736	-0.13219303543295952	1.264418564099618	0.643583085435121	-0.3835752828526175	1.2809056368172618	0.57948088145148	-0.48975134905151974	1.2661589666873918	0.5326660693592535	-0.5295639987696212	1.287545579947826	0.584210592250174	-0.5333332228715972	1.2972782427278255	0.6441519014700957	
90	1.836734693877551	0.3465494244019742	0.7294552778286231	0.657001415265793	0.34233659312905956	0.2534145822741468	0.7345433181003597	0.3228263270325309	-0.14328433769288013	0.7940431276781792	0.2889323865894726	-0.18357111927320005	0.6309786383562057	0.3486497069097557	-0.16930991603577	0.6215472970457295	0.29272027718405724	-0.2258166309228675	0.8964523270218417	0.14145826411836837	0.7375080405111057	0.6498786960545135	0.12293990279374076	0.26726754521760826	0.7395423352605719	0.1195050596274333	-0.12652440810117688	0.7820426554672161	0.1275593025177172	-0.15075749188703144	0.5843525289403841	0.07064314246037057	-0.16777751791571655	0.6565243158099726	0.14397705632341226	-0.18815298714507403	0.8386227739312404	0.257518872822335	1.2895497737582602	0.5989932519908514	0.26120835074422405	1.5155155776006453	0.5591271143708161	0.253704709274812	1.3842763768571902	0.5158159415781308	0.4199872758510276	1.24672690249152	0.6367785998325175	0.6765475307244753	1.2351063788823815	0.5562202421065625	0.9095310847483056	1.2523067873345695	0.5318311048202923	1.0520882946337269	1.2218478822326444	0.4648094583229045	1.0719140397530864	1.2205441070275969	0.4676515226758536	1.0558111737982214	1.2048240709643283	0.5428190165929905	0.09367424558368882	1.261005584906419	0.6544358610501935	-0.13344639258579907	1.264510236243122	0.6410670396234812	-0.3838712869331003	1.2806565167217387	0.5764667934625106	-0.49072607230365217	1.2660679458594055	0.5331393011462511	-0.5296119873402827	1.287812757933953	0.58455560108216	-0.5346761828229424	1.2968333549452888	0.6436728078183227	
91	1.8571428571428568	0.34619203704544893	0.7296732041074341	0.6564693441445351	0.34235248352037384	0.2534581543705095	0.7344976428674513	0.323068680443403	-0.1430398129879723	0.793123259819097	0.2889684504808064	-0.18415131996002282	0.6309440034335501	0.34896713218085135	-0.16936712440529322	0.6215027670793888	0.29268016005786107	-0.22581840879519788	0.8966531268601039	0.1414373849425682	0.7382434509976281	0.6502166796361657	0.12309088651264673	0.26717404284107305	0.7394411314085583	0.11958310354221881	-0.12688954186559295	0.7820330873976915	0.12756356918198183	-0.1504639141879602	0.5845614070624128	0.0706671231307677	-0.1677215924637189	0.6565194688461313	0.14381484150468327	-0.18859892071064066	0.8382323709656331	0.2574737360845183	1.29009438971588	0.5988282251076338	0.2611852336688871	1.5153436450198814	0.5590730396881368	0.2533204674248879	1.3842751022096664	0.5156780913042239	0.4190809946575126	1.2466652694830187	0.6339909154240229	0.6765376208780138	1.2351106839257704	0.5562626058727407	0.9085359186445081	1.2510011975512174	0.5296854950657823	1.0512405969668197	1.2218293230684987	0.4597483532753186	1.0708157566892031	1.2188350047040524	0.4665801841783713	1.0562744801307673	1.2041703185788881	0.5422704153966313	0.09366880325374574	1.2610372419930507	0.6544572242012786	-0.1350530894888107	1.2643747204767333	0.640270667862443	-0.3844070325863913	1.280179010265288	0.5749469426424532	-0.4917610923771864	1.265758021229347	0.5356072364428917	-0.5296617858617186	1.2875238516352636	0.5851043014804469	-0.5355662045198022	1.2962229455692083	0.6422227443894811	
